<svg width="33" height="33" viewBox="0 0 33 33" fill="none" xmlns="http://www.w3.org/2000/svg">
<path d="M6.57812 27.0573V25.6855C6.57812 23.1389 7.58978 20.6965 9.39055 18.8958C11.1913 17.095 13.6337 16.0833 16.1803 16.0833M16.1803 16.0833C18.727 16.0833 21.1694 17.095 22.9701 18.8958C24.7709 20.6965 25.7826 23.1389 25.7826 25.6855V27.0573M16.1803 16.0833C17.6356 16.0833 19.0312 15.5052 20.0602 14.4762C21.0892 13.4472 21.6673 12.0516 21.6673 10.5964C21.6673 9.14112 21.0892 7.74548 20.0602 6.71647C19.0312 5.68747 17.6356 5.10938 16.1803 5.10938C14.7251 5.10938 13.3295 5.68747 12.3005 6.71647C11.2715 7.74548 10.6934 9.14112 10.6934 10.5964C10.6934 12.0516 11.2715 13.4472 12.3005 14.4762C13.3295 15.5052 14.7251 16.0833 16.1803 16.0833Z" stroke="#FEC26C" stroke-width="2" stroke-linecap="round" stroke-linejoin="round"/>
</svg>
