<svg width="68" height="68" viewBox="0 0 68 68" fill="none" xmlns="http://www.w3.org/2000/svg">
<g clip-path="url(#clip0_38_384)">
<path d="M14.1667 58.0833H49.5833V38.25C49.5833 36.5689 50.0818 34.9255 51.0158 33.5276C51.9498 32.1298 53.2774 31.0404 54.8305 30.397C56.3837 29.7537 58.0928 29.5853 59.7416 29.9133C61.3904 30.2413 62.905 31.0508 64.0937 32.2396C65.2825 33.4283 66.092 34.9429 66.42 36.5917C66.748 38.2406 66.5797 39.9496 65.9363 41.5028C65.293 43.056 64.2035 44.3835 62.8057 45.3175C61.4079 46.2515 59.7645 46.75 58.0833 46.75H56.6667M0 66.5833H68M42.5 29.75H7.08333V30.4583L7.26183 30.7417C12.699 39.3481 15.5845 49.3199 15.5833 59.5M15.5833 0V2.83333C15.5833 7.71774 17.5237 12.4021 20.9774 15.8559C24.4312 19.3097 29.1156 21.25 34 21.25M41.0833 22.6667V12.75H34C31.3699 12.75 28.8476 11.7052 26.9879 9.84547C25.1281 7.98574 24.0833 5.4634 24.0833 2.83333V0" stroke="black"/>
</g>
<defs>
<clipPath id="clip0_38_384">
<rect width="68" height="68" fill="white"/>
</clipPath>
</defs>
</svg>
