<svg width="36" height="36" viewBox="0 0 36 36" fill="none" xmlns="http://www.w3.org/2000/svg">
<path d="M1 30.1666C1 27.9565 1.87797 25.8369 3.44078 24.2741C5.00358 22.7113 7.1232 21.8333 9.33333 21.8333H26C28.2101 21.8333 30.3298 22.7113 31.8926 24.2741C33.4554 25.8369 34.3333 27.9565 34.3333 30.1666C34.3333 31.2717 33.8943 32.3315 33.1129 33.1129C32.3315 33.8943 31.2717 34.3333 30.1667 34.3333H5.16667C4.0616 34.3333 3.00179 33.8943 2.22039 33.1129C1.43899 32.3315 1 31.2717 1 30.1666Z" stroke="#1E1E1E" stroke-width="2" stroke-linejoin="round"/>
<path d="M17.668 13.5C21.1197 13.5 23.918 10.7018 23.918 7.25C23.918 3.79822 21.1197 1 17.668 1C14.2162 1 11.418 3.79822 11.418 7.25C11.418 10.7018 14.2162 13.5 17.668 13.5Z" stroke="#1E1E1E" stroke-width="2"/>
</svg>
