<svg width="35" height="35" viewBox="0 0 35 35" fill="none" xmlns="http://www.w3.org/2000/svg">
<g clip-path="url(#clip0_234_261)">
<path d="M17.5007 21.875C19.9169 21.875 21.8756 19.9162 21.8756 17.5C21.8756 15.0837 19.9169 13.125 17.5007 13.125C15.0844 13.125 13.1257 15.0837 13.1257 17.5C13.1257 19.9162 15.0844 21.875 17.5007 21.875Z" stroke="#1E1E1E" stroke-width="2" stroke-linecap="round" stroke-linejoin="round"/>
<path d="M28.2923 21.875C28.0982 22.3148 28.0403 22.8028 28.1261 23.2758C28.2118 23.7489 28.4374 24.1854 28.7736 24.5291L28.8611 24.6166C29.1322 24.8875 29.3474 25.2092 29.4942 25.5633C29.6409 25.9174 29.7165 26.2969 29.7165 26.6802C29.7165 27.0635 29.6409 27.443 29.4942 27.7971C29.3474 28.1512 29.1322 28.4728 28.8611 28.7437C28.5902 29.0149 28.2685 29.23 27.9144 29.3768C27.5604 29.5236 27.1808 29.5991 26.7975 29.5991C26.4142 29.5991 26.0347 29.5236 25.6806 29.3768C25.3265 29.23 25.0049 29.0149 24.734 28.7437L24.6465 28.6562C24.3028 28.32 23.8663 28.0945 23.3932 28.0087C22.9201 27.9229 22.4322 27.9809 21.9923 28.175C21.561 28.3598 21.1931 28.6668 20.934 29.0581C20.6749 29.4493 20.5359 29.9078 20.534 30.3771V30.625C20.534 31.3985 20.2267 32.1404 19.6797 32.6874C19.1327 33.2344 18.3909 33.5416 17.6173 33.5416C16.8438 33.5416 16.1019 33.2344 15.5549 32.6874C15.0079 32.1404 14.7007 31.3985 14.7007 30.625V30.4937C14.6894 30.011 14.5331 29.5429 14.2522 29.1502C13.9713 28.7574 13.5788 28.4583 13.1257 28.2916C12.6858 28.0975 12.1979 28.0396 11.7248 28.1254C11.2517 28.2112 10.8152 28.4367 10.4715 28.7729L10.384 28.8604C10.1131 29.1316 9.79143 29.3467 9.43735 29.4935C9.08327 29.6403 8.70374 29.7158 8.32044 29.7158C7.93715 29.7158 7.55761 29.6403 7.20353 29.4935C6.84946 29.3467 6.52778 29.1316 6.2569 28.8604C5.98572 28.5895 5.77059 28.2678 5.62381 27.9138C5.47703 27.5597 5.40148 27.1801 5.40148 26.7969C5.40148 26.4136 5.47703 26.034 5.62381 25.6799C5.77059 25.3259 5.98572 25.0042 6.2569 24.7333L6.3444 24.6458C6.6806 24.3021 6.90613 23.8656 6.99191 23.3925C7.07768 22.9194 7.01978 22.4315 6.82565 21.9916C6.64079 21.5603 6.33384 21.1925 5.94258 20.9333C5.55132 20.6742 5.09284 20.5352 4.62357 20.5333H4.37565C3.6021 20.5333 2.86024 20.226 2.31326 19.679C1.76628 19.1321 1.45898 18.3902 1.45898 17.6166C1.45898 16.8431 1.76628 16.1012 2.31326 15.5543C2.86024 15.0073 3.6021 14.7 4.37565 14.7H4.5069C4.9896 14.6887 5.45774 14.5324 5.85046 14.2516C6.24318 13.9707 6.54232 13.5781 6.70898 13.125C6.90311 12.6851 6.96102 12.1972 6.87524 11.7241C6.78946 11.251 6.56393 10.8145 6.22773 10.4708L6.14023 10.3833C5.86905 10.1124 5.65392 9.79076 5.50714 9.43668C5.36036 9.0826 5.28481 8.70307 5.28481 8.31977C5.28481 7.93648 5.36036 7.55694 5.50714 7.20286C5.65392 6.84878 5.86905 6.52711 6.14023 6.25623C6.41111 5.98505 6.73279 5.76992 7.08687 5.62314C7.44094 5.47636 7.82048 5.40081 8.20378 5.40081C8.58707 5.40081 8.96661 5.47636 9.32068 5.62314C9.67476 5.76992 9.99644 5.98505 10.2673 6.25623L10.3548 6.34373C10.6985 6.67993 11.135 6.90546 11.6081 6.99124C12.0812 7.07701 12.5691 7.01911 13.009 6.82498H13.1257C13.557 6.64012 13.9248 6.33316 14.184 5.94191C14.4431 5.55065 14.5821 5.09217 14.584 4.6229V4.37498C14.584 3.60143 14.8913 2.85957 15.4383 2.31258C15.9852 1.7656 16.7271 1.45831 17.5007 1.45831C18.2742 1.45831 19.0161 1.7656 19.563 2.31258C20.11 2.85957 20.4173 3.60143 20.4173 4.37498V4.50623C20.4192 4.9755 20.5582 5.43399 20.8173 5.82524C21.0765 6.2165 21.4443 6.52345 21.8756 6.70831C22.3155 6.90244 22.8034 6.96035 23.2765 6.87457C23.7496 6.78879 24.1861 6.56326 24.5298 6.22706L24.6173 6.13956C24.8882 5.86838 25.2099 5.65325 25.5639 5.50647C25.918 5.35969 26.2976 5.28414 26.6809 5.28414C27.0642 5.28414 27.4437 5.35969 27.7978 5.50647C28.1518 5.65325 28.4735 5.86838 28.7444 6.13956C29.0156 6.41044 29.2307 6.73212 29.3775 7.0862C29.5243 7.44027 29.5998 7.81981 29.5998 8.2031C29.5998 8.5864 29.5243 8.96594 29.3775 9.32001C29.2307 9.67409 29.0156 9.99577 28.7444 10.2666L28.6569 10.3541C28.3207 10.6978 28.0952 11.1344 28.0094 11.6075C27.9236 12.0805 27.9815 12.5685 28.1756 13.0083V13.125C28.3605 13.5563 28.6675 13.9242 29.0587 14.1833C29.45 14.4424 29.9085 14.5814 30.3777 14.5833H30.6256C31.3992 14.5833 32.1411 14.8906 32.688 15.4376C33.235 15.9846 33.5423 16.7264 33.5423 17.5C33.5423 18.2735 33.235 19.0154 32.688 19.5624C32.1411 20.1094 31.3992 20.4166 30.6256 20.4166H30.4944C30.0251 20.4185 29.5666 20.5576 29.1754 20.8167C28.7841 21.0758 28.4772 21.4436 28.2923 21.875Z" stroke="#1E1E1E" stroke-width="2" stroke-linecap="round" stroke-linejoin="round"/>
</g>
<defs>
<clipPath id="clip0_234_261">
<rect width="35" height="35" fill="white"/>
</clipPath>
</defs>
</svg>
